<svg width="18" height="18" viewBox="0 0 18 18" fill="none" xmlns="http://www.w3.org/2000/svg">
<path d="M3.75 15.75C3.3375 15.75 2.9845 15.6033 2.691 15.3098C2.3975 15.0163 2.2505 14.663 2.25 14.25V4.89375C2.25 4.71875 2.27825 4.55 2.33475 4.3875C2.39125 4.225 2.4755 4.075 2.5875 3.9375L3.525 2.79375C3.6625 2.61875 3.83425 2.48425 4.04025 2.39025C4.24625 2.29625 4.462 2.2495 4.6875 2.25H13.3125C13.5375 2.25 13.7533 2.297 13.9598 2.391C14.1663 2.485 14.338 2.61925 14.475 2.79375L15.4125 3.9375C15.525 4.075 15.6095 4.225 15.666 4.3875C15.7225 4.55 15.7505 4.71875 15.75 4.89375V14.25C15.75 14.6625 15.6033 15.0158 15.3097 15.3098C15.0162 15.6038 14.663 15.7505 14.25 15.75H3.75ZM4.05 4.5H13.95L13.3125 3.75H4.6875L4.05 4.5ZM12 6H6V12L9 10.5L12 12V6Z" fill="black"/>
</svg>
