<svg width="18" height="18" viewBox="0 0 18 18" fill="none" xmlns="http://www.w3.org/2000/svg">
<path d="M9.00074 12.9562L5.88824 14.8312C5.75074 14.9187 5.60698 14.9562 5.45698 14.9437C5.30698 14.9312 5.17573 14.8812 5.06323 14.7937C4.95073 14.7062 4.86323 14.5969 4.80073 14.4659C4.73823 14.3349 4.72573 14.1879 4.76323 14.0249L5.58823 10.4812L2.83198 8.0999C2.70698 7.9874 2.62898 7.85915 2.59798 7.71515C2.56698 7.57115 2.57623 7.43065 2.62573 7.29365C2.67523 7.15665 2.75023 7.04415 2.85073 6.95615C2.95123 6.86815 3.08873 6.8119 3.26323 6.7874L6.90073 6.46865L8.30698 3.13115C8.36948 2.98115 8.46649 2.86865 8.59799 2.79365C8.72949 2.71865 8.86374 2.68115 9.00074 2.68115C9.13773 2.68115 9.27199 2.71865 9.40348 2.79365C9.53498 2.86865 9.63199 2.98115 9.69449 3.13115L11.1007 6.46865L14.7382 6.7874C14.9132 6.8124 15.0507 6.86865 15.1507 6.95615C15.2507 7.04365 15.3257 7.15615 15.3757 7.29365C15.4257 7.43115 15.4352 7.5719 15.4042 7.7159C15.3732 7.8599 15.295 7.9879 15.1695 8.0999L12.4132 10.4812L13.2382 14.0249C13.2757 14.1874 13.2632 14.3344 13.2007 14.4659C13.1382 14.5974 13.0507 14.7067 12.9382 14.7937C12.8257 14.8807 12.6945 14.9307 12.5445 14.9437C12.3945 14.9567 12.2507 14.9192 12.1132 14.8312L9.00074 12.9562Z" fill="black"/>
</svg>
